Coordinates
version=1
nRows=39
nColumns=6
inDegrees=yes

Units are S.I. units (second, meters, Newtons, ...)
If the header above contains a line with 'inDegrees', this indicates whether rotational values are in degrees (yes) or radians (no).

endheader
time	foot_tx	hip_flexion_r	knee_angle_r	ankle_angle_r	lumbar
    135.00000000	      0.23549809	     50.33020626	    -44.12254485	      9.18163802	    -29.78011308
    135.01000000	      0.23567809	     48.66732901	    -42.74554936	      8.92601480	    -29.43209749
    135.02000000	      0.23583986	     46.99827374	    -41.35592681	      8.66210301	    -29.07847661
    135.03000000	      0.23598094	     45.33633797	    -39.95569872	      8.39020029	    -28.70632561
    135.04000000	      0.23610422	     43.69004195	    -38.54710879	      8.11084193	    -28.30791683
    135.05000000	      0.23621230	     42.06139388	    -37.13260652	      7.82516172	    -27.88326447
    135.06000000	      0.23630779	     40.45973186	    -35.71564486	      7.53393730	    -27.42496634
    135.07000000	      0.23639254	     38.89050279	    -34.30005355	      7.23793748	    -26.93173440
    135.08000000	      0.23646613	     37.36363670	    -32.89099385	      6.93860962	    -26.39545160
    135.09000000	      0.23653053	     35.89522408	    -31.49331015	      6.63555576	    -25.80653652
    135.10000000	      0.23657917	     34.48650260	    -30.11409049	      6.33219137	    -25.17009432
    135.11000000	      0.23660653	     33.14030089	    -28.75979580	      6.03187375	    -24.48794532
    135.12000000	      0.23661363	     31.86318128	    -27.43422712	      5.73649080	    -23.75516490
    135.13000000	      0.23659488	     30.64197377	    -26.14100881	      5.45049292	    -22.98666893
    135.14000000	      0.23654262	     29.46570080	    -24.88546848	      5.17903704	    -22.19597932
    135.15000000	      0.23647056	     28.33540887	    -23.66576622	      4.92024270	    -21.38409756
    135.16000000	      0.23637380	     27.24884673	    -22.48938932	      4.67818732	    -20.56031896
    135.17000000	      0.23626166	     26.20732245	    -21.35892285	      4.45297080	    -19.72942709
    135.18000000	      0.23614304	     25.21629586	    -20.27693245	      4.24446585	    -18.89050869
    135.19000000	      0.23602232	     24.27353213	    -19.24549061	      4.05309659	    -18.05243297
    135.20000000	      0.23589973	     23.37538909	    -18.26665634	      3.88008108	    -17.22177105
    135.21000000	      0.23577948	     22.52270353	    -17.34284032	      3.72597455	    -16.40170306
    135.22000000	      0.23565888	     21.71691370	    -16.47822735	      3.59261054	    -15.59415319
    135.23000000	      0.23555558	     20.98964465	    -15.67422841	      3.47717208	    -14.76726925
    135.24000000	      0.23546608	     20.23678655	    -14.92044251	      3.38175143	    -14.03270695
    135.25000000	      0.23540563	     19.57202673	    -14.23106766	      3.30437335	    -13.27148590
    135.26000000	      0.23537603	     18.93620577	    -13.59703457	      3.24441876	    -12.54513802
    135.27000000	      0.23537575	     18.33086776	    -13.01784507	      3.20155660	    -11.85108225
    135.28000000	      0.23540833	     17.75629715	    -12.48642822	      3.17198118	    -11.18444836
    135.29000000	      0.23546517	     17.24494305	    -12.00638338	      3.15585419	    -10.50842951
    135.30000000	      0.23554454	     16.71448780	    -11.55559141	      3.14802766	     -9.90156401
    135.31000000	      0.23563755	     16.20842103	    -11.13788813	      3.14836353	     -9.31265960
    135.32000000	      0.23573897	     15.75618470	    -10.75547047	      3.15675498	     -8.70583487
    135.33000000	      0.23584666	     15.26903929	    -10.38598231	      3.16896342	     -8.16527209
    135.34000000	      0.23596417	     14.79508547	    -10.03961348	      3.18692073	     -7.63991678
    135.35000000	      0.23608962	     14.33149213	     -9.71288471	      3.20946607	     -7.13019718
    135.36000000	      0.23622552	     13.87843938	     -9.40508274	      3.23598146	     -6.63685230
    135.37000000	      0.23636791	     13.43591635	     -9.11370183	      3.26534212	     -6.16015510
    135.38000000	      0.23651419	     13.00417325	     -8.83674523	      3.29669337	     -5.69840204
